<?xml version="1.0" encoding="UTF-8"?>
<svg width="1041px" height="190px" viewBox="0 0 1041 190" version="1.1" xmlns="http://www.w3.org/2000/svg" xmlns:xlink="http://www.w3.org/1999/xlink">
    <!-- Generator: Sketch 43.2 (39069) - http://www.bohemiancoding.com/sketch -->
    <title>Group 20</title>
    <desc>Created with Sketch.</desc>
    <defs></defs>
    <g id="Page-1" stroke="none" stroke-width="1" fill="none" fill-rule="evenodd">
        <g id="Desktop-HD" transform="translate(-246.000000, -10207.000000)">
            <g id="Group-20" transform="translate(246.000000, 10207.000000)">
                <g id="Group-17">
                    <text id="Let-children-design" font-family="FranklinGothic-Book, Franklin Gothic Book" font-size="18" font-weight="normal" fill="#33394E">
                        <tspan x="26" y="105">Let child</tspan>
                        <tspan x="95.5057042" y="105" letter-spacing="-0.18660738">r</tspan>
                        <tspan x="101.251714" y="105">en design a</tspan>
                        <tspan x="199.640076" y="105" letter-spacing="-0.0051549"> </tspan>
                        <tspan x="209.436523" y="105">customized </tspan>
                        <tspan x="26" y="125">model on-line and print it in fab lab.  </tspan>
                    </text>
                    <text id="Can’t-implement-with" font-family="FranklinGothic-Book, Franklin Gothic Book" font-size="18" font-weight="normal" fill="#F8941F">
                        <tspan x="26" y="166">Can</tspan>
                        <tspan x="55.6982422" y="166" letter-spacing="-0.1855764">’</tspan>
                        <tspan x="60.0126658" y="166">t implement with technologies </tspan>
                        <tspan x="26" y="186">and there’s no family experience</tspan>
                    </text>
                    <g id="Group-16">
                        <path d="M4.14176543,7.66666667 L111.949395,7.66666667" id="Stroke-2" stroke="#D0EEEA"></path>
                        <path d="M15,7.5 C15,11.643 11.643,15 7.5,15 C3.357,15 0,11.643 0,7.5 C0,3.357 3.357,0 7.5,0 C11.643,0 15,3.357 15,7.5 Z" id="Stroke-5" fill="#9ED9D0"></path>
                    </g>
                    <text id="1st-Iteration-Custom" font-family="FranklinGothic-Medium, Franklin Gothic Medium" font-size="22" font-weight="normal" fill="#33394E">
                        <tspan x="26" y="39">1st Iteration</tspan>
                        <tspan x="26" y="64">Customized model website</tspan>
                    </text>
                </g>
                <g id="Group-18" transform="translate(372.000000, 0.000000)">
                    <text id="Children-choose-mode" font-family="FranklinGothic-Book, Franklin Gothic Book" font-size="18" font-weight="normal" fill="#33394E">
                        <tspan x="24" y="105">Child</tspan>
                        <tspan x="63.2180784" y="105" letter-spacing="-0.1855764">r</tspan>
                        <tspan x="69.1868599" y="105">en choose models on-line </tspan>
                        <tspan x="24" y="125">and producing it in fab labs. </tspan>
                    </text>
                    <text id="Making-model-is-not" font-family="FranklinGothic-Book, Franklin Gothic Book" font-size="18" font-weight="normal" fill="#F8941F">
                        <tspan x="24" y="166">Making model is not an attractive </tspan>
                        <tspan x="24" y="186">activity to parents.</tspan>
                    </text>
                    <g id="Group-16">
                        <path d="M4.14176543,7.66666667 L111.949395,7.66666667" id="Stroke-2" stroke="#D0EEEA"></path>
                        <path d="M15,7.5 C15,11.643 11.643,15 7.5,15 C3.357,15 0,11.643 0,7.5 C0,3.357 3.357,0 7.5,0 C11.643,0 15,3.357 15,7.5 Z" id="Stroke-5" fill="#9ED9D0"></path>
                    </g>
                    <text id="2nd-Iteration-Making" font-family="FranklinGothic-Medium, Franklin Gothic Medium" font-size="22" font-weight="normal" fill="#33394E">
                        <tspan x="24" y="34">2nd Iteration</tspan>
                        <tspan x="24" y="59">Making models in fab lab</tspan>
                    </text>
                </g>
                <g id="Group-19" transform="translate(741.000000, 0.000000)">
                    <text id="Let-children-choose" font-family="FranklinGothic-Book, Franklin Gothic Book" font-size="18" font-weight="normal" fill="#33394E">
                        <tspan x="31" y="105">Let child</tspan>
                        <tspan x="99.3879468" y="105" letter-spacing="-0.1855764">r</tspan>
                        <tspan x="105.134988" y="105">en choose activities and </tspan>
                        <tspan x="31" y="125">exeperience it in fab lab </tspan>
                    </text>
                    <text id="An-entertaining-and" font-family="FranklinGothic-Book, Franklin Gothic Book" font-size="18" font-weight="normal" fill="#F8941F">
                        <tspan x="27" y="166">An entertaining and educational </tspan>
                        <tspan x="27" y="186">family experience</tspan>
                    </text>
                    <g id="Group-16">
                        <path d="M4.14176543,7.66666667 L111.949395,7.66666667" id="Stroke-2" stroke="#D0EEEA"></path>
                        <path d="M15,7.5 C15,11.643 11.643,15 7.5,15 C3.357,15 0,11.643 0,7.5 C0,3.357 3.357,0 7.5,0 C11.643,0 15,3.357 15,7.5 Z" id="Stroke-5" fill="#9ED9D0"></path>
                    </g>
                    <text id="3rd-Iteration-Fun-fi" font-family="FranklinGothic-Medium, Franklin Gothic Medium" font-size="22" font-weight="normal" fill="#33394E">
                        <tspan x="27" y="31">3rd Iteration</tspan>
                        <tspan x="27" y="56">Fun field trip to fab lab</tspan>
                    </text>
                </g>
            </g>
        </g>
    </g>
</svg>